<svg width="25" height="26" viewBox="0 0 25 26" fill="none" xmlns="http://www.w3.org/2000/svg">
<path d="M5.14677 20.1392V11.5125L13.113 3.05658H2.84772C1.58325 3.05658 0.548676 4.15475 0.548676 5.49696V22.5796C0.548676 23.9218 1.58325 25.02 2.84772 25.02H18.941C20.2055 25.02 21.2401 23.9218 21.2401 22.5796V11.6833L13.2739 20.1392H5.14677Z" fill="#F2E8DF"/>
<path d="M7.4458 17.6988H12.3198L20.5963 8.91347L15.7224 3.73987L7.4458 12.5252V17.6988Z" fill="#F2E8DF"/>
<path d="M23.4357 2.43428L21.8148 0.713811C20.9182 -0.237937 19.4583 -0.237937 18.5617 0.713811L17.3432 2.00721L22.2172 7.18082L23.4357 5.88742C24.3438 4.93567 24.3438 3.38603 23.4357 2.43428Z" fill="#F2E8DF"/>
</svg>
