<svg width="51" height="51" viewBox="0 0 51 51" fill="none" xmlns="http://www.w3.org/2000/svg">
<g clip-path="url(#clip0_3_126)">
<path d="M11.3687 27.625C13.8975 27.625 14.3863 29.75 18.445 29.75C22.5888 29.75 22.8862 27.625 25.5212 27.625C28.05 27.625 28.5387 29.75 32.5975 29.75C36.7412 29.75 37.0387 27.625 39.6738 27.625C42.2025 27.625 42.6488 29.7075 46.7075 29.75V25.5C44.1787 25.5 43.69 23.375 39.6312 23.375C35.4875 23.375 35.19 25.5 32.555 25.5C30.0262 25.5 29.5375 23.375 25.4788 23.375C21.335 23.375 21.0375 25.5 18.4025 25.5C15.8737 25.5 15.385 23.375 11.3263 23.375C7.1825 23.375 6.885 25.5 4.25 25.5V29.75C8.2875 29.75 8.86125 27.625 11.3687 27.625ZM39.6738 31.875C35.53 31.875 35.2325 34 32.5975 34C30.0688 34 29.58 31.875 25.5212 31.875C21.3775 31.875 21.0588 34 18.4237 34C15.7887 34 15.4913 31.875 11.3475 31.875C7.20375 31.875 6.885 34 4.25 34V38.25C8.39375 38.25 8.73375 36.125 11.3475 36.125C13.9825 36.125 14.28 38.25 18.4237 38.25C22.5675 38.25 22.8862 36.125 25.5212 36.125C28.05 36.125 28.5387 38.25 32.5975 38.25C36.72 38.25 37.0387 36.125 39.6738 36.125C42.2025 36.125 42.6912 38.25 46.75 38.25V34C44.115 34 43.8175 31.875 39.6738 31.875ZM11.3687 19.125C13.8975 19.125 14.3863 21.25 18.445 21.25C22.5888 21.25 22.8862 19.125 25.5212 19.125C28.05 19.125 28.5387 21.25 32.5975 21.25C36.7412 21.25 37.0387 19.125 39.6738 19.125C42.2025 19.125 42.6488 21.2075 46.7075 21.25V17C44.1787 17 43.69 14.875 39.6312 14.875C35.4875 14.875 35.19 17 32.555 17C30.0262 17 29.5375 14.875 25.4788 14.875C21.335 14.875 21.0375 17 18.4025 17C15.8737 17 15.385 14.875 11.3263 14.875C7.1825 14.875 6.885 17 4.25 17V21.25C8.2875 21.25 8.86125 19.125 11.3687 19.125Z" fill="#F2E8DF"/>
</g>
<defs>
<clipPath id="clip0_3_126">
<rect width="51" height="51" fill="white"/>
</clipPath>
</defs>
</svg>
